<svg xmlns="http://www.w3.org/2000/svg" viewBox="0 0 116.22 111.69"><defs><style>.cls-1{fill:#eded0c;}</style></defs><title>アセット 1</title><g id="レイヤー_2" data-name="レイヤー 2"><g id="レイヤー_1-2" data-name="レイヤー 1"><path class="cls-1" d="M87.15,111,59.45,95.77a5.11,5.11,0,0,0-4.76-.1L26.41,109.83a5.11,5.11,0,0,1-7.31-5.54l6-31.06a5.12,5.12,0,0,0-1.38-4.56L1.48,46.15a5.12,5.12,0,0,1,3-8.67l31.38-3.92a5.14,5.14,0,0,0,3.91-2.72L54.33,2.76a5.12,5.12,0,0,1,9.18.18L76.94,31.58a5.09,5.09,0,0,0,3.8,2.87l31.19,5.17a5.12,5.12,0,0,1,2.67,8.79L91.52,70A5.14,5.14,0,0,0,90,74.52l4.73,31.27A5.12,5.12,0,0,1,87.15,111Z"/></g></g></svg>